<svg width="425" height="102" viewBox="0 0 425 102" fill="none" xmlns="http://www.w3.org/2000/svg">
<path d="M140.3 47L127.052 0.279999H136.332L145.036 32.6L154.636 0.279999H163.404L173.004 32.472L181.58 0.279999H190.604L177.42 47H168.652L158.988 14.36L149.388 47H140.3ZM203.064 47.64C199.224 47.64 195.683 46.168 192.44 43.224C189.24 40.28 187.64 36.2053 187.64 31C187.64 27.416 188.451 24.3227 190.072 21.72C191.693 19.1173 193.635 17.24 195.896 16.088C198.2 14.936 200.632 14.36 203.192 14.36C207.16 14.36 210.339 15.6187 212.728 18.136V15H221.496V47H212.728V43.416C210.339 46.232 207.117 47.64 203.064 47.64ZM204.792 39.576C207.139 39.576 209.08 38.744 210.616 37.08C212.195 35.3733 212.984 33.3253 212.984 30.936C212.984 28.5467 212.195 26.52 210.616 24.856C209.08 23.192 207.139 22.36 204.792 22.36C202.36 22.36 200.312 23.1707 198.648 24.792C197.027 26.4133 196.216 28.4613 196.216 30.936C196.216 33.4107 197.027 35.48 198.648 37.144C200.312 38.7653 202.36 39.576 204.792 39.576ZM237.495 47L225.399 15H234.423L241.911 35.8L249.207 15H258.103L246.327 47H237.495ZM262.13 47V15H270.834V20.248C272.498 16.7493 275.442 15 279.666 15H283.186V23.512H277.618C275.271 23.512 273.565 24.1733 272.498 25.496C271.431 26.8187 270.898 28.952 270.898 31.896V47H262.13ZM286.874 54.488L289.05 41.432H296.794L292.314 54.488H286.874ZM8.41075 94.34C13.3068 94.34 17.3528 91.926 17.3528 86.928C17.3528 82.406 14.4968 80.638 9.94075 79.108C6.37075 77.884 5.01075 76.966 5.01075 74.654C5.01075 72.614 6.47275 71.288 8.71675 71.288C11.9468 71.288 13.8168 73.396 14.5308 76.932H15.9588V71.798C14.2588 70.574 11.7088 69.792 8.71675 69.792C3.85475 69.792 0.488752 72.716 0.488752 77.136C0.488752 81.216 3.00475 83.222 7.25475 84.582C11.1988 85.908 12.6608 86.928 12.6608 89.274C12.6608 91.518 10.9948 92.844 8.41075 92.844C4.94275 92.844 2.73275 90.158 1.91675 86.214H0.318752L0.624752 92.096C2.18875 93.354 5.07875 94.34 8.41075 94.34ZM26.9253 75.504H26.0073L19.4793 77.408V78.19L21.4513 79.38V91.382C21.4513 92.504 20.9073 92.674 19.4453 92.776V94H28.9313V92.776C27.4693 92.674 26.9253 92.504 26.9253 91.382V75.504ZM24.1713 73.702C26.0073 73.702 27.2313 72.376 27.2313 70.812C27.2313 69.248 26.0073 67.888 24.1713 67.888C22.3353 67.888 21.1453 69.248 21.1453 70.812C21.1453 72.376 22.3353 73.702 24.1713 73.702ZM54.2072 91.382C54.2072 92.504 53.7992 92.674 52.3372 92.776V94H61.6872V92.776C60.2252 92.674 59.6812 92.504 59.6812 91.382V80.944C59.6812 77.34 58.0152 75.504 54.9212 75.504C52.0312 75.504 49.9912 77.17 48.6652 78.972C48.2232 76.558 46.6592 75.504 44.1092 75.504C41.1852 75.504 39.3492 77.068 38.0232 78.904L38.1592 75.504H37.1392L30.5772 77.408V78.19L32.5492 79.38V91.382C32.5492 92.504 32.0052 92.674 30.5432 92.776V94H39.8932V92.776C38.3972 92.674 38.0232 92.504 38.0232 91.382V79.856C38.9752 79.244 39.9272 78.734 41.1512 78.734C42.7832 78.734 43.3612 79.652 43.3612 81.386V91.382C43.3612 92.504 42.9872 92.674 41.5252 92.776V94H50.7052V92.776C49.2432 92.674 48.8352 92.504 48.8352 91.382V79.856C49.7872 79.244 50.7732 78.734 51.9632 78.734C53.6292 78.734 54.2072 79.652 54.2072 81.386V91.382ZM73.0854 92.912C71.1134 92.912 70.2974 91.552 70.2974 89.138V79.652C71.0114 79.108 71.9294 78.768 72.8474 78.768C75.7374 78.768 77.3014 81.25 77.3014 85.568C77.3014 89.682 75.7714 92.912 73.0854 92.912ZM64.8574 98.59C64.8574 99.712 64.3134 99.882 62.8174 99.984V101.208H73.0174V99.984C70.9434 99.814 70.2974 99.712 70.2974 98.454V93.524C70.9774 94.068 72.1674 94.34 73.4934 94.34C78.7294 94.34 82.8434 90.6 82.8434 83.8C82.8434 78.428 80.0894 75.504 76.0094 75.504C73.2214 75.504 71.3514 77.136 70.2974 78.734L70.4334 75.504H69.4474L62.8854 77.408V78.19L64.8574 79.38V98.59ZM92.0242 67.378H91.1402L84.6122 68.976V69.826L86.5842 70.846V91.382C86.5842 92.504 86.0402 92.674 84.5442 92.776V94H94.0642V92.776C92.5682 92.674 92.0242 92.504 92.0242 91.382V67.378ZM106.4 88.56L102.558 79.176C102.422 78.768 102.354 78.53 102.354 78.224C102.354 77.476 102.864 77.272 104.632 77.068V75.844H94.6023V77.068C95.7923 77.408 95.9963 77.646 96.3363 78.394L103.85 94.748L103.306 96.074C102.626 97.74 101.572 98.25 99.7023 98.25C98.6823 98.25 98.0023 98.114 97.2203 97.944V100.018C97.6623 100.936 98.7163 101.48 99.9743 101.48C102.252 101.48 103.476 99.95 104.632 97.094L112.248 78.394C112.554 77.646 112.792 77.408 113.982 77.068V75.844H107.998V77.068C109.732 77.272 110.276 77.476 110.276 78.224C110.276 78.53 110.174 78.768 110.004 79.21L106.4 88.56ZM128.66 94.34C133.012 94.34 135.834 92.164 135.834 88.39C135.834 84.854 133.658 83.46 129.816 82.134C127.368 81.284 126.314 80.604 126.314 79.074C126.314 77.714 127.334 76.796 128.932 76.796C131.312 76.796 132.774 78.768 133.25 81.114H134.542V77C133.114 76.082 131.142 75.504 128.898 75.504C124.954 75.504 122.234 77.544 122.234 81.182C122.234 84.446 124.206 85.976 127.912 87.2C130.428 88.084 131.72 88.696 131.72 90.498C131.72 92.198 130.36 93.048 128.66 93.048C126.042 93.048 124.274 90.872 123.56 88.016H122.166L122.37 92.64C123.764 93.66 125.94 94.34 128.66 94.34ZM146.807 75.504C142.013 75.504 138.069 79.414 138.069 85.364C138.069 90.838 141.605 94.34 146.569 94.34C150.683 94.34 153.233 91.96 154.117 88.39L153.539 88.05C152.281 89.784 150.717 90.668 148.439 90.668C145.243 90.668 142.897 88.016 142.999 83.562H153.981V82.78C153.981 78.564 151.533 75.504 146.807 75.504ZM146.433 76.83C148.439 76.83 149.187 78.938 149.187 82.168H143.067C143.271 79.04 144.359 76.83 146.433 76.83ZM162.986 67.378H162.102L155.574 68.976V69.826L157.546 70.846V91.382C157.546 92.504 157.002 92.674 155.506 92.776V94H165.026V92.776C163.53 92.674 162.986 92.504 162.986 91.382V67.378ZM173.984 67.378H173.1L166.572 68.976V69.826L168.544 70.846V91.382C168.544 92.504 168 92.674 166.504 92.776V94H176.024V92.776C174.528 92.674 173.984 92.504 173.984 91.382V67.378ZM195.407 88.56L191.565 79.176C191.429 78.768 191.361 78.53 191.361 78.224C191.361 77.476 191.871 77.272 193.639 77.068V75.844H183.609V77.068C184.799 77.408 185.003 77.646 185.343 78.394L192.857 94.748L192.313 96.074C191.633 97.74 190.579 98.25 188.709 98.25C187.689 98.25 187.009 98.114 186.227 97.944V100.018C186.669 100.936 187.723 101.48 188.981 101.48C191.259 101.48 192.483 99.95 193.639 97.094L201.255 78.394C201.561 77.646 201.799 77.408 202.989 77.068V75.844H197.005V77.068C198.739 77.272 199.283 77.476 199.283 78.224C199.283 78.53 199.181 78.768 199.011 79.21L195.407 88.56ZM212.236 93.014C209.754 93.014 208.768 89.274 208.768 83.97C208.768 79.584 209.686 76.83 211.964 76.83C214.446 76.83 215.432 80.57 215.432 85.874C215.432 90.26 214.514 93.014 212.236 93.014ZM212.066 94.34C217.37 94.34 221.246 90.294 221.246 84.548C221.246 79.074 217.54 75.504 212.134 75.504C206.83 75.504 202.988 79.55 202.988 85.296C202.988 90.77 206.66 94.34 212.066 94.34ZM241.101 79.652L241.305 75.538H240.353L233.689 76.932V78.088L234.199 78.19C235.423 78.462 235.661 79.074 235.661 80.128V90.158C234.641 90.702 233.791 91.144 232.601 91.144C230.833 91.144 230.119 90.022 230.119 88.118V79.72L230.289 75.538H229.371L222.673 76.932V78.088L223.183 78.19C224.407 78.462 224.645 79.074 224.645 80.128V88.73C224.645 92.606 226.651 94.34 229.677 94.34C232.533 94.34 234.335 92.64 235.661 91.076L235.559 94.34H236.545L243.209 93.15V91.96L242.393 91.926C241.203 91.858 241.101 91.416 241.101 90.26V79.652ZM252.221 81.794C253.853 80.332 255.621 80.23 257.763 80.23H258.477V76.082C258.171 75.742 257.627 75.504 256.879 75.504C254.805 75.504 253.717 76.796 252.221 80.638L252.357 75.504H251.337L244.775 77.408V78.19L246.747 79.38V91.382C246.747 92.504 246.203 92.674 244.741 92.776V94H255.009V92.776C252.969 92.572 252.221 92.402 252.221 90.974V81.794ZM271.064 83.358C271.064 79.72 272.458 76.898 274.804 76.898C276.572 76.898 277.15 78.326 277.15 80.196C277.15 80.808 277.082 81.352 277.014 81.998H279.904C280.652 81.658 281.298 80.808 281.298 79.618C281.298 76.83 278.748 75.504 275.382 75.504C269.874 75.504 266.338 79.788 266.338 85.5C266.338 90.94 269.806 94.34 274.464 94.34C278.102 94.34 280.72 92.47 281.808 88.56L281.128 88.186C280.04 89.784 278.544 90.566 276.504 90.566C273.07 90.566 271.064 87.744 271.064 83.358ZM290.727 81.794C292.359 80.332 294.127 80.23 296.269 80.23H296.983V76.082C296.677 75.742 296.133 75.504 295.385 75.504C293.311 75.504 292.223 76.796 290.727 80.638L290.863 75.504H289.843L283.281 77.408V78.19L285.253 79.38V91.382C285.253 92.504 284.709 92.674 283.247 92.776V94H293.515V92.776C291.475 92.572 290.727 92.402 290.727 90.974V81.794ZM306.901 75.504C302.107 75.504 298.163 79.414 298.163 85.364C298.163 90.838 301.699 94.34 306.663 94.34C310.777 94.34 313.327 91.96 314.211 88.39L313.633 88.05C312.375 89.784 310.811 90.668 308.533 90.668C305.337 90.668 302.991 88.016 303.093 83.562H314.075V82.78C314.075 78.564 311.627 75.504 306.901 75.504ZM306.527 76.83C308.533 76.83 309.281 78.938 309.281 82.168H303.161C303.365 79.04 304.453 76.83 306.527 76.83ZM323.685 91.314C321.917 91.314 321.169 90.056 321.169 88.288C321.169 86.35 322.019 85.67 323.345 85.126L325.759 84.174V90.498C325.011 91.008 324.467 91.314 323.685 91.314ZM331.165 81.25C331.165 77.034 328.547 75.504 324.025 75.504C320.081 75.504 317.021 76.932 317.021 79.89C317.021 81.046 317.667 81.828 318.619 82.134L321.883 81.692C321.679 80.91 321.577 80.196 321.577 79.482C321.577 77.85 322.189 76.694 323.651 76.694C325.215 76.694 325.759 77.918 325.759 79.686V82.848L320.489 84.718C318.007 85.636 315.933 86.826 315.933 89.784C315.933 92.606 317.837 94.272 320.659 94.272C323.107 94.272 324.807 92.844 325.861 91.416C326.303 93.252 327.595 94.34 329.499 94.34C331.267 94.34 332.627 93.66 333.647 92.504L333.443 91.688C333.137 91.824 332.695 91.96 332.185 91.96C331.335 91.96 331.165 91.246 331.165 90.26V81.25ZM341.504 71.322H340.348C338.75 73.6 336.506 75.538 333.99 76.592V77.544H336.03V88.934C336.03 92.844 338.138 94.34 341.062 94.34C343.646 94.34 345.448 93.116 346.638 91.212L346.162 90.532C345.346 91.144 344.564 91.45 343.68 91.45C342.218 91.45 341.504 90.668 341.504 88.798V77.544H345.72V75.844H341.504V71.322ZM355.206 75.504H354.288L347.76 77.408V78.19L349.732 79.38V91.382C349.732 92.504 349.188 92.674 347.726 92.776V94H357.212V92.776C355.75 92.674 355.206 92.504 355.206 91.382V75.504ZM352.452 73.702C354.288 73.702 355.512 72.376 355.512 70.812C355.512 69.248 354.288 67.888 352.452 67.888C350.616 67.888 349.426 69.248 349.426 70.812C349.426 72.376 350.616 73.702 352.452 73.702ZM368.072 93.014C365.59 93.014 364.604 89.274 364.604 83.97C364.604 79.584 365.522 76.83 367.8 76.83C370.282 76.83 371.268 80.57 371.268 85.874C371.268 90.26 370.35 93.014 368.072 93.014ZM367.902 94.34C373.206 94.34 377.082 90.294 377.082 84.548C377.082 79.074 373.376 75.504 367.97 75.504C362.666 75.504 358.824 79.55 358.824 85.296C358.824 90.77 362.496 94.34 367.902 94.34ZM392.18 91.382C392.18 92.504 391.704 92.674 390.242 92.776V94H399.66V92.776C398.198 92.674 397.654 92.504 397.654 91.382V81.046C397.654 77.34 395.886 75.504 392.656 75.504C389.664 75.504 387.726 77.204 386.366 78.87L386.502 75.504H385.482L378.92 77.408V78.19L380.892 79.38V91.382C380.892 92.504 380.348 92.674 378.886 92.776V94H388.304V92.776C386.842 92.674 386.366 92.504 386.366 91.382V79.856C387.318 79.244 388.474 78.768 389.732 78.768C391.534 78.768 392.18 79.686 392.18 81.454V91.382ZM407.942 94.34C412.294 94.34 415.116 92.164 415.116 88.39C415.116 84.854 412.94 83.46 409.098 82.134C406.65 81.284 405.596 80.604 405.596 79.074C405.596 77.714 406.616 76.796 408.214 76.796C410.594 76.796 412.056 78.768 412.532 81.114H413.824V77C412.396 76.082 410.424 75.504 408.18 75.504C404.236 75.504 401.516 77.544 401.516 81.182C401.516 84.446 403.488 85.976 407.194 87.2C409.71 88.084 411.002 88.696 411.002 90.498C411.002 92.198 409.642 93.048 407.942 93.048C405.324 93.048 403.556 90.872 402.842 88.016H401.448L401.652 92.64C403.046 93.66 405.222 94.34 407.942 94.34ZM417.939 91.28C417.939 92.946 419.299 94.34 420.931 94.34C422.631 94.34 423.957 92.946 423.957 91.28C423.957 89.546 422.631 88.186 420.931 88.186C419.299 88.186 417.939 89.546 417.939 91.28ZM421.747 86.316L424.263 70.132H417.633L420.115 86.316H421.747Z" fill="white"/>
</svg>
